<?xml version="1.0" encoding="UTF-8" standalone="no"?>
<!-- Created with Inkscape (http://www.inkscape.org/) -->

<svg
   xmlns:dc="http://purl.org/dc/elements/1.1/"
   xmlns:cc="http://creativecommons.org/ns#"
   xmlns:rdf="http://www.w3.org/1999/02/22-rdf-syntax-ns#"
   xmlns:svg="http://www.w3.org/2000/svg"
   xmlns="http://www.w3.org/2000/svg"
   xmlns:sodipodi="http://sodipodi.sourceforge.net/DTD/sodipodi-0.dtd"
   xmlns:inkscape="http://www.inkscape.org/namespaces/inkscape"
   version="1.1"
   id="svg3732"
   xml:space="preserve"
   width="991.97064"
   height="632.64679"
   viewBox="0 0 991.97062 632.64678"
   sodipodi:docname="h2alsv_logo_fixed.svg"
   inkscape:version="0.92.4 5da689c313, 2019-01-14"><metadata
     id="metadata3738"><rdf:RDF><cc:Work
         rdf:about=""><dc:format>image/svg+xml</dc:format><dc:type
           rdf:resource="http://purl.org/dc/dcmitype/StillImage" /><dc:title></dc:title></cc:Work></rdf:RDF></metadata><defs
     id="defs3736"><clipPath
       clipPathUnits="userSpaceOnUse"
       id="clipPath3748"><path
         d="M 0,2000 H 2000 V 0 H 0 Z"
         id="path3746"
         inkscape:connector-curvature="0" /></clipPath></defs><sodipodi:namedview
     pagecolor="#ffffff"
     bordercolor="#666666"
     borderopacity="1"
     objecttolerance="10"
     gridtolerance="10"
     guidetolerance="10"
     inkscape:pageopacity="0"
     inkscape:pageshadow="2"
     inkscape:window-width="1916"
     inkscape:window-height="1023"
     id="namedview3734"
     showgrid="false"
     inkscape:zoom="0.31199999"
     inkscape:cx="495.98526"
     inkscape:cy="316.32362"
     inkscape:window-x="2"
     inkscape:window-y="55"
     inkscape:window-maximized="1"
     inkscape:current-layer="g3740" /><g
     id="g3740"
     inkscape:groupmode="layer"
     inkscape:label="Logo 2"
     transform="matrix(1.3333333,0,0,-1.3333333,-837.34811,1649.6565)"><g
       id="g3742"><g
         id="g3744"
         clip-path="url(#clipPath3748)"><g
           id="g3750"
           transform="translate(707.0345,767.5146)"><path
             d="m 0,0 c 0,-1.329 -0.461,-2.454 -1.382,-3.375 -0.922,-0.922 -2.046,-1.382 -3.375,-1.382 -1.299,0 -2.409,0.46 -3.33,1.382 -0.922,0.921 -1.381,2.046 -1.381,3.375 v 62.969 c 0,1.329 0.459,2.454 1.381,3.376 0.921,0.92 2.031,1.381 3.33,1.381 1.298,0 2.408,-0.461 3.329,-1.381 C -0.507,65.423 -0.03,64.298 0,62.969 V 41.225 c 4.017,3.11 8.743,4.666 14.179,4.666 3.172,0 6.184,-0.62 9.038,-1.858 2.854,-1.239 5.369,-2.923 7.543,-5.052 2.175,-2.127 3.896,-4.635 5.164,-7.519 1.269,-2.885 1.902,-5.958 1.902,-9.219 V 0 c -0.029,-1.329 -0.505,-2.454 -1.426,-3.375 -0.921,-0.922 -2.031,-1.382 -3.331,-1.382 -1.298,0 -2.407,0.46 -3.329,1.382 -0.921,0.921 -1.382,2.046 -1.382,3.375 v 22.243 c 0,1.933 -0.377,3.76 -1.132,5.481 -0.754,1.721 -1.775,3.224 -3.058,4.507 -1.283,1.285 -2.786,2.303 -4.507,3.059 -1.722,0.754 -3.55,1.132 -5.482,1.132 -1.963,0 -3.797,-0.37 -5.504,-1.109 C 6.969,34.572 5.466,33.553 4.168,32.255 2.868,30.955 1.85,29.445 1.109,27.724 0.37,26.003 0,24.176 0,22.243 Z"
             style="fill:#636b72;fill-opacity:1;fill-rule:nonzero;stroke:none"
             id="path3752"
             inkscape:connector-curvature="0" /></g><g
           id="g3754"
           transform="translate(816.8275,813.2695)"><path
             d="m 0,0 c 0,3.02 0.581,5.858 1.744,8.517 1.162,2.656 2.74,4.982 4.734,6.976 1.994,1.993 4.319,3.563 6.976,4.711 2.657,1.147 5.482,1.722 8.473,1.722 2.989,0 5.812,-0.589 8.47,-1.768 2.658,-1.177 4.983,-2.762 6.978,-4.757 1.992,-1.992 3.569,-4.318 4.732,-6.976 C 43.27,5.768 43.852,2.96 43.852,0 c 0,-3.021 -0.552,-5.829 -1.654,-8.427 -1.103,-2.597 -2.695,-4.953 -4.78,-7.067 l -22.016,-25.55 h 23.692 c 1.329,0 2.456,-0.468 3.376,-1.404 0.921,-0.937 1.382,-2.055 1.382,-3.353 0,-1.299 -0.461,-2.408 -1.382,-3.329 -0.92,-0.922 -2.047,-1.382 -3.376,-1.382 H 4.711 c -0.665,0 -1.283,0.12 -1.857,0.363 -0.574,0.241 -1.073,0.581 -1.496,1.019 -0.422,0.437 -0.754,0.943 -0.996,1.518 C 0.12,-47.039 0,-46.435 0,-45.801 c 0,1.36 0.437,2.477 1.314,3.353 l 29.355,33.523 c 2.476,2.477 3.715,5.451 3.715,8.925 0,1.69 -0.333,3.291 -0.997,4.801 -0.664,1.51 -1.563,2.832 -2.696,3.965 -1.132,1.131 -2.454,2.03 -3.963,2.695 -1.51,0.664 -3.111,0.997 -4.801,0.997 -1.722,0 -3.338,-0.325 -4.849,-0.975 C 15.567,10.834 14.247,9.95 13.114,8.833 11.981,7.715 11.091,6.401 10.442,4.892 9.792,3.381 9.468,1.751 9.468,0 9.468,-1.299 9.007,-2.409 8.086,-3.33 7.164,-4.252 6.04,-4.711 4.711,-4.711 3.413,-4.711 2.302,-4.252 1.381,-3.33 0.461,-2.409 0,-1.299 0,0"
             style="fill:#636b72;fill-opacity:1;fill-rule:nonzero;stroke:none"
             id="path3756"
             inkscape:connector-curvature="0" /></g><g
           id="g3758"
           transform="translate(957.97,804.0273)"><path
             d="m 0,0 c -2.236,0 -4.319,-0.423 -6.252,-1.269 -1.933,-0.845 -3.608,-1.986 -5.028,-3.419 -1.42,-1.435 -2.545,-3.119 -3.375,-5.051 -0.831,-1.934 -1.245,-3.988 -1.245,-6.161 0,-2.175 0.414,-4.229 1.245,-6.162 0.83,-1.933 1.955,-3.617 3.375,-5.051 1.42,-1.434 3.095,-2.575 5.028,-3.42 1.933,-0.846 4.016,-1.269 6.252,-1.269 2.203,0 4.274,0.423 6.207,1.269 1.932,0.845 3.616,1.993 5.051,3.443 1.434,1.449 2.567,3.133 3.397,5.051 0.829,1.918 1.245,3.964 1.245,6.139 0,2.173 -0.416,4.22 -1.245,6.138 -0.83,1.917 -1.963,3.601 -3.397,5.051 -1.435,1.45 -3.119,2.597 -5.051,3.442 C 4.274,-0.423 2.203,0 0,0 m 15.9,-36.559 v 0.907 C 13.635,-37.465 11.173,-38.854 8.518,-39.819 5.859,-40.787 3.02,-41.27 0,-41.27 c -7.007,0 -12.987,2.476 -17.939,7.429 -4.955,4.953 -7.431,10.934 -7.431,17.941 0,7.005 2.476,12.985 7.431,17.939 4.952,4.952 10.932,7.43 17.939,7.43 6.946,0 12.926,-2.478 17.939,-7.43 4.953,-4.954 7.429,-10.934 7.429,-17.939 v -20.659 c 0,-1.298 -0.461,-2.408 -1.381,-3.329 -0.922,-0.922 -2.031,-1.382 -3.33,-1.382 -1.328,0 -2.453,0.46 -3.375,1.382 -0.922,0.921 -1.382,2.031 -1.382,3.329"
             style="fill:#ce0014;fill-opacity:1;fill-rule:nonzero;stroke:none"
             id="path3760"
             inkscape:connector-curvature="0" /></g><g
           id="g3762"
           transform="translate(1055.0764,767.4687)"><path
             d="m 0,0 v 63.015 c 0,1.329 0.446,2.454 1.338,3.376 0.891,0.92 2.015,1.38 3.375,1.38 1.357,0 2.484,-0.46 3.375,-1.38 0.891,-0.922 1.335,-2.047 1.335,-3.376 V 4.757 h 2.174 c 1.3,0 2.41,-0.461 3.332,-1.382 C 15.849,2.454 16.31,1.329 16.31,0 c 0,-1.299 -0.461,-2.408 -1.381,-3.329 -0.922,-0.922 -2.032,-1.382 -3.332,-1.382 h -6.93 c -1.3,0 -2.401,0.46 -3.307,1.382 C 0.453,-2.408 0,-1.299 0,0"
             style="fill:#636b72;fill-opacity:1;fill-rule:nonzero;stroke:none"
             id="path3764"
             inkscape:connector-curvature="0" /></g><g
           id="g3766"
           transform="translate(1151.4622,786.9033)"><path
             d="m 0,0 c -2.84,1.087 -4.832,2.204 -5.979,3.353 h 0.045 c -2.296,2.325 -3.443,5.058 -3.443,8.2 0,2.294 0.611,4.371 1.833,6.228 1.224,1.858 2.817,3.436 4.78,4.735 1.964,1.297 4.175,2.302 6.637,3.012 2.462,0.709 4.93,1.065 7.407,1.065 7.55,0 14.028,-3.035 19.435,-9.106 0.634,-0.786 0.95,-1.737 0.95,-2.854 0,-1.359 -0.446,-2.485 -1.337,-3.375 -0.891,-0.891 -2.016,-1.336 -3.373,-1.336 -0.967,0 -1.79,0.271 -2.47,0.815 -0.679,0.543 -1.337,1.132 -1.969,1.766 -3.082,3.081 -6.828,4.621 -11.236,4.621 -4.35,0 -7.822,-1.328 -10.421,-3.986 -0.483,-0.484 -0.722,-1.149 -0.722,-1.993 0,-0.846 0.39,-1.42 1.177,-1.721 L 22.516,2.447 c 2.958,-1.148 4.952,-2.265 5.979,-3.352 h -0.046 c 2.294,-2.326 3.444,-5.06 3.444,-8.2 0,-2.327 -0.612,-4.41 -1.835,-6.252 -1.224,-1.842 -2.818,-3.42 -4.779,-4.735 -1.964,-1.313 -4.169,-2.317 -6.616,-3.012 -2.445,-0.694 -4.906,-1.042 -7.383,-1.042 -7.612,0 -14.089,3.005 -19.433,9.016 -0.666,0.875 -0.999,1.857 -0.999,2.944 0,1.359 0.447,2.485 1.338,3.375 0.89,0.891 2.014,1.336 3.375,1.336 0.996,0 1.841,-0.295 2.536,-0.883 0.694,-0.589 1.328,-1.156 1.903,-1.699 3.079,-3.081 6.841,-4.621 11.28,-4.621 4.318,0 7.792,1.36 10.419,4.077 0.452,0.514 0.68,1.133 0.68,1.859 0,0.845 -0.409,1.432 -1.224,1.765 z"
             style="fill:#636b72;fill-opacity:1;fill-rule:nonzero;stroke:none"
             id="path3768"
             inkscape:connector-curvature="0" /></g><g
           id="g3770"
           transform="translate(1278.7854,762.7578)"><path
             d="m 0,0 c -1.992,0 -3.384,0.846 -4.167,2.537 l -19.118,41.587 c -0.241,0.634 -0.361,1.269 -0.361,1.902 0,0.635 0.12,1.239 0.361,1.812 0.242,0.574 0.573,1.08 0.997,1.518 0.423,0.437 0.922,0.778 1.494,1.019 0.574,0.242 1.194,0.363 1.857,0.363 0.817,0 1.6,-0.204 2.357,-0.612 0.755,-0.407 1.344,-0.99 1.767,-1.744 L 0,16.082 14.77,48.336 c 0.874,1.602 2.248,2.402 4.121,2.402 0.663,0 1.283,-0.121 1.858,-0.363 0.572,-0.241 1.07,-0.582 1.494,-1.019 0.424,-0.438 0.763,-0.944 1.019,-1.518 0.256,-0.573 0.386,-1.177 0.386,-1.812 0,-0.695 -0.136,-1.33 -0.409,-1.902 L 4.169,2.537 C 3.321,0.846 1.933,0 0,0"
             style="fill:#636b72;fill-opacity:1;fill-rule:nonzero;stroke:none"
             id="path3772"
             inkscape:connector-curvature="0" /></g><g
           id="g3774"
           transform="translate(927.5775,922.0303)"><path
             d="m 0,0 c -2.569,0 -4.661,-2.092 -4.661,-4.662 0,-2.57 2.092,-4.661 4.661,-4.661 2.57,0 4.662,2.091 4.662,4.661 C 4.662,-2.092 2.57,0 0,0"
             style="fill:#636b72;fill-opacity:1;fill-rule:nonzero;stroke:none"
             id="path3776"
             inkscape:connector-curvature="0" /></g><g
           id="g3778"
           transform="translate(927.5775,893.4062)"><path
             d="M 0,0 C 2.57,0 4.662,2.091 4.662,4.661 4.662,7.231 2.57,9.323 0,9.323 -2.569,9.323 -4.661,7.231 -4.661,4.661 -4.661,2.091 -2.569,0 0,0"
             style="fill:#636b72;fill-opacity:1;fill-rule:nonzero;stroke:none"
             id="path3780"
             inkscape:connector-curvature="0" /></g><g
           id="g3782"
           transform="translate(1050.1448,1103.5752)"><path
             d="m 0,0 c 8.433,0 15.269,-6.836 15.269,-15.269 0,-8.432 -6.836,-15.269 -15.269,-15.269 -8.434,0 -15.27,6.837 -15.27,15.269 C -15.27,-6.836 -8.434,0 0,0 m 0,-46.433 c 17.211,0 31.163,13.953 31.163,31.164 C 31.163,1.943 0,42.283 0,42.283 c 0,0 -31.164,-40.34 -31.164,-57.552 0,-17.211 13.952,-31.164 31.164,-31.164"
             style="fill:#ce0014;fill-opacity:1;fill-rule:nonzero;stroke:none"
             id="path3784"
             inkscape:connector-curvature="0" /></g><g
           id="g3786"
           transform="translate(948.7191,885.4434)"><path
             d="M 0,0 7.312,-18.694 H -49.593 L -42.282,0 Z M -54.226,40.316 H 11.943 V 24.391 H -54.226 Z M 11.943,4.233 H -54.226 V 20.159 H 11.943 Z M 107.015,-8.86 c 0,-3.933 1.752,-7.45 4.508,-9.834 H 91.327 c 2.758,2.384 4.51,5.901 4.51,9.834 h 0.047 v 63.794 c 0,3.06 2.481,5.541 5.542,5.541 3.06,0 5.541,-2.481 5.541,-5.541 V -8.86 Z m -238.393,241.944 c 6.915,3.359 13.818,6.738 20.719,10.122 18.843,9.356 37.529,18.984 56.139,28.747 18.606,9.771 37.095,19.746 55.514,29.844 l 27.562,15.265 22.722,12.821 22.721,-12.834 27.558,-15.271 c 18.424,-10.09 36.9,-20.088 55.511,-29.848 18.61,-9.765 37.297,-19.392 56.14,-28.746 6.905,-3.382 13.812,-6.761 20.73,-10.118 V -18.694 H 128.521 c 2.758,2.384 4.51,5.901 4.51,9.834 h 0.047 v 63.794 20.85 52.781 c 4.518,-6.346 7.185,-14.096 7.185,-22.462 V 77.55 c 0,-5.733 4.647,-10.379 10.379,-10.379 5.732,0 10.378,4.646 10.378,10.379 v 28.553 c 0,32.86 -26.734,59.594 -59.594,59.594 -32.862,0 -59.596,-26.734 -59.596,-59.594 V 77.55 c 0,-5.733 4.648,-10.379 10.379,-10.379 5.731,0 10.379,4.646 10.379,10.379 v 28.553 c 0,8.366 2.668,16.116 7.185,22.463 V 75.784 54.934 -8.86 h 0.047 c 0,-3.933 1.752,-7.45 4.51,-9.834 H 11.856 L 4.545,0 h 9.515 c 1.169,0 2.116,0.948 2.116,2.116 v 40.317 c 0,1.169 -0.947,2.116 -2.116,2.116 H -8.244 l -10.352,41.768 3.781,5.416 H -31.81 l 3.362,-6.349 -11.008,-40.835 h -16.886 c -1.169,0 -2.116,-0.947 -2.116,-2.116 V 2.116 C -58.458,0.948 -57.511,0 -56.342,0 h 9.515 l -7.311,-18.694 h -77.24 z M 242.404,-18.694 v 247.666 c 9.224,-4.42 18.492,-8.759 27.866,-12.915 -17.2,12.237 -34.833,23.717 -52.432,35.253 -17.655,11.44 -35.465,22.606 -53.356,33.634 -17.885,11.033 -35.908,21.828 -53.982,32.532 l -27.189,15.919 -27.317,15.694 -4.716,2.71 -4.71,-2.71 -27.309,-15.707 -27.187,-15.925 c -18.079,-10.695 -36.087,-21.514 -53.98,-32.536 -17.888,-11.03 -35.699,-22.195 -53.356,-33.632 -17.604,-11.528 -35.236,-23.008 -52.444,-35.232 9.371,4.164 18.641,8.507 27.864,12.931 V -18.694 h -180.864 v -6.35 H 423.27 v 6.35 z"
             style="fill:#636b72;fill-opacity:1;fill-rule:nonzero;stroke:none"
             id="path3788"
             inkscape:connector-curvature="0" /></g></g></g></g></svg>